<svg class="footer-logo" viewBox="0 0 370 460" height="90" width="80" xmlns="http://www.w3.org/2000/svg">
	<path fill="none" d="M-1-1h582v402H-1z"/>
	<g>
		<g stroke="null">
			<defs transform="matrix(44.41563 0 0 44.41563 -332.336 -239.897)">
				<clipPath stroke="null" id="a">
					<path d="M750.59 668.525v.004-.004z"/>
				</clipPath>
				<clipPath stroke="null" id="c">
					<path d="M197.749 1020.357h800v-800h-800v800z"/>
				</clipPath>
				<linearGradient stroke="null" y2=".509" y1=".504" x1="NaN" x2="-Infinity" id="b">
					<stop stop-color="#3c6a8c" offset="0"/>
					<stop stop-color="#3c6a8c" offset=".685"/>
					<stop stop-color="#294961" offset=".999"/>
					<stop stop-color="#294961" offset="1"/>
				</linearGradient>
			</defs>
			<g transform="matrix(1.30533 0 0 -1.30533 -363.392 799.227)" clip-path="url(#a)">
				<path fill="url(#b)" d="M571.994 447.402v.004-.004z"/>
			</g>
			<g transform="matrix(1.30533 0 0 -1.30533 -363.392 799.227)" clip-path="url(#c)">

				<path class="footer-logo-d"
					  d="M356.597 338.676v61.434c0 30.439 22.058 55.569 51.248 60.566 0 0 19.568 4.782 30.591 20.755 10.607 15.368 11.221 32.147 11.221 32.147-19.275 4.953-31.123 4.064-31.123 4.064-65.419 0-118.433-52.615-118.433-117.532V298.33c-.019-.468-.064-.928-.064-1.4 0-.473.045-.933.064-1.401v-.503l.024-.001c.905-16.172 13.162-28.993 28.192-28.993 15.62 0 28.28 13.833 28.28 30.898v41.746z"
					  fill="#3b698d"/>

				<path class="footer-logo-r"
					  d="M366.657 294.144c19.055-9.013 29.598-11.128 51.996-11.963 65.42 0 118.64 53.012 118.64 117.929v.005l-.063 175.787c.02.46.063.913.063 1.378 0 .473-.045.933-.064 1.4v.504h-.024c-.904 16.173-13.16 28.994-28.192 28.994-15.618 0-28.28-13.834-28.28-30.898v-25.598l.065-.062v-51.408a118.695 118.695 0 01-18.932 9.348c-7.165-38.218-26.158-47.61-29.07-49.584h-.067c27.535-6.29 48.067-30.612 48.07-59.861v-.005c0-34.06-27.824-61.867-62.146-61.867-21.795 0-40.957 11.223-52.05 28.13l.054-72.228v-.001z"
					  fill="#c3d8e3"/>
			</g>
		</g>
	</g>
</svg>